Coordinates
version=1
nRows=8
nColumns=63
inDegrees=yes

Units are S.I. units (second, meters, Newtons, ...)
If the header above contains a line with 'inDegrees', this indicates whether rotational values are in degrees (yes) or radians (no).

endheader
time	pelvis_tilt	pelvis_list	pelvis_rotation	pelvis_tx	pelvis_ty	pelvis_tz	hip_flexion_r	hip_adduction_r	hip_rotation_r	knee_angle_r	knee_angle_r_beta	ankle_angle_r	subtalar_angle_r	mtp_angle_r	hip_flexion_l	hip_adduction_l	hip_rotation_l	knee_angle_l	knee_angle_l_beta	ankle_angle_l	subtalar_angle_l	mtp_angle_l	L5_S1_Flex_Ext	L5_S1_Lat_Bending	L5_S1_axial_rotation	L4_L5_Flex_Ext	L4_L5_Lat_Bending	L4_L5_axial_rotation	L3_L4_Flex_Ext	L3_L4_Lat_Bending	L3_L4_axial_rotation	L2_L3_Flex_Ext	L2_L3_Lat_Bending	L2_L3_axial_rotation	L1_L2_Flex_Ext	L1_L2_Lat_Bending	L1_L2_axial_rotation	L1_T12_Flex_Ext	L1_T12_Lat_Bending	L1_T12_axial_rotation	Abs_r3	Abs_r2	Abs_r1	Abs_t1	Abs_t2	neck_flexion	neck_bending	neck_rotation	arm_flex_r	arm_add_r	arm_rot_r	elbow_flex_r	pro_sup_r	wrist_flex_r	wrist_dev_r	arm_flex_l	arm_add_l	arm_rot_l	elbow_flex_l	pro_sup_l	wrist_flex_l	wrist_dev_l
3.304348	3.083721	-1.896510	89.087241	0.211197	0.958870	0.567036	-4.852380	-0.383392	3.771492	0.971637	0.016958	22.127693	3.636068	0.000000	-3.948340	0.657419	6.687647	1.688754	0.029474	19.865028	-6.903090	0.000000	-0.028042	-0.234457	-1.281396	-0.052077	-0.311828	-1.361484	-0.046070	-0.570058	-1.361484	-0.032049	-0.570058	-1.121222	-0.026040	-0.478104	-1.041135	-0.016023	-0.363174	-0.961047	-0.200302	-2.652222	-7.126743	0.000000	0.000000	4.218434	5.828443	24.254569	8.687076	-10.642430	65.085296	23.883810	78.918592	-3.635301	3.007248	-7.707584	-17.224867	32.205091	35.382624	87.153331	-1.988106	14.367876
3.326087	3.063956	-1.829211	88.962076	0.211089	0.958900	0.566931	-4.932994	-0.435091	3.014622	1.022833	0.017852	22.261464	4.795102	0.000000	-4.051082	0.704120	6.565302	1.668382	0.029119	19.880304	-6.811984	0.000000	-0.035519	-0.231074	-1.300115	-0.065963	-0.307329	-1.381372	-0.058355	-0.561834	-1.381372	-0.040595	-0.561834	-1.137601	-0.032983	-0.471207	-1.056344	-0.020296	-0.357934	-0.975086	-0.253711	-2.613958	-7.230851	0.000000	0.000000	4.169296	5.773020	24.538164	8.873101	-10.622311	65.463003	23.852847	78.655554	-3.571935	3.337951	-7.970774	-17.092209	31.346387	35.486316	87.076747	-1.742659	14.339721
3.347826	3.044470	-1.763793	88.848806	0.210938	0.958940	0.566783	-5.020502	-0.484716	2.479136	1.061963	0.018535	22.351120	5.617606	0.000000	-4.155390	0.752094	6.511558	1.645555	0.028720	19.874498	-6.791407	0.000000	-0.038786	-0.227070	-1.318032	-0.072030	-0.302004	-1.400408	-0.063722	-0.552099	-1.400408	-0.044329	-0.552099	-1.153278	-0.036017	-0.463042	-1.070901	-0.022162	-0.351732	-0.988524	-0.277046	-2.568666	-7.330496	0.000000	0.000000	4.129002	5.634302	24.641420	9.064578	-10.602965	66.009986	23.778964	78.427975	-3.651046	3.556354	-8.216814	-16.960927	30.635030	35.543272	86.979743	-1.565241	14.243423
3.369565	3.026095	-1.699687	88.745908	0.210776	0.959001	0.566605	-5.110907	-0.530743	2.182676	1.088776	0.019003	22.398031	6.090972	0.000000	-4.260971	0.798124	6.513711	1.618702	0.028252	19.849120	-6.838251	0.000000	-0.039173	-0.222943	-1.331267	-0.072748	-0.296514	-1.414472	-0.064357	-0.542063	-1.414472	-0.044770	-0.542063	-1.164859	-0.036376	-0.454625	-1.081655	-0.022383	-0.345338	-0.998450	-0.279806	-2.521972	-7.404109	0.000000	0.000000	4.086099	5.434969	24.596335	9.242092	-10.581869	66.632405	23.674710	78.285983	-3.851956	3.669625	-8.411063	-16.840631	30.109439	35.540365	86.912913	-1.403974	14.111395
3.391304	3.011976	-1.638157	88.657489	0.210607	0.959098	0.566415	-5.200476	-0.568222	2.150747	1.100966	0.019215	22.401152	6.173671	0.000000	-4.362638	0.837274	6.552197	1.590687	0.027763	19.810882	-6.926217	0.000000	-0.037568	-0.218521	-1.336075	-0.069767	-0.290633	-1.419580	-0.061720	-0.531313	-1.419580	-0.042936	-0.531313	-1.169066	-0.034885	-0.445609	-1.085561	-0.021466	-0.338489	-1.002056	-0.268343	-2.471956	-7.430849	0.000000	0.000000	4.020915	5.187820	24.432122	9.391153	-10.564864	67.263613	23.554168	78.288251	-4.205383	3.682116	-8.481766	-16.746412	29.979584	35.428290	86.866945	-1.310631	13.883270
3.413043	2.992751	-1.584560	88.589059	0.210450	0.959226	0.566244	-5.275914	-0.609362	2.141766	1.105273	0.019291	22.435047	6.229972	0.000000	-4.442017	0.874229	6.437929	1.581709	0.027606	19.826473	-6.781921	0.000000	-0.033976	-0.215701	-1.335379	-0.063098	-0.286882	-1.418840	-0.055820	-0.524454	-1.418840	-0.038832	-0.524454	-1.168456	-0.031550	-0.439857	-1.084995	-0.019414	-0.334120	-1.001534	-0.242690	-2.440048	-7.426975	0.000000	0.000000	3.954430	4.940756	24.169591	9.560057	-10.536801	68.093699	23.379966	78.205471	-4.660600	3.521245	-8.428918	-16.693613	30.205921	35.232475	86.844480	-1.252282	13.644791
3.434783	2.984892	-1.533099	88.534205	0.210291	0.959371	0.566064	-5.349010	-0.634352	2.470074	1.091791	0.019055	22.394352	5.808974	0.000000	-4.528008	0.900248	6.533596	1.550778	0.027066	19.761912	-6.943456	0.000000	-0.029935	-0.211721	-1.328379	-0.055593	-0.281589	-1.411402	-0.049180	-0.514778	-1.411402	-0.034213	-0.514778	-1.162331	-0.027798	-0.431741	-1.079308	-0.017105	-0.327955	-0.996284	-0.213824	-2.395027	-7.388044	0.000000	0.000000	3.896501	4.701402	23.899962	9.699031	-10.525522	68.798271	23.234644	78.441894	-5.242554	3.318266	-8.254558	-16.651477	30.763974	34.927833	86.875547	-1.275757	13.328819
3.456522	2.980602	-1.483183	88.476462	0.210177	0.959539	0.565897	-5.415088	-0.653625	2.924430	1.067209	0.018626	22.335845	5.240917	0.000000	-4.615123	0.918889	6.602253	1.511820	0.026386	19.697282	-7.079690	0.000000	-0.025146	-0.207736	-1.319596	-0.046699	-0.276288	-1.402071	-0.041313	-0.505089	-1.402071	-0.028740	-0.505089	-1.154647	-0.023351	-0.423615	-1.072172	-0.014369	-0.321783	-0.989697	-0.179618	-2.349948	-7.339199	0.000000	0.000000	3.817677	4.486553	23.684921	9.909967	-10.495393	69.755217	23.023517	78.770945	-5.893574	3.015978	-7.985158	-16.629362	31.579975	34.542817	86.947541	-1.325037	12.994748
